<svg id="visual" viewBox="0 0 960 540" width="960" height="540" xmlns="http://www.w3.org/2000/svg" xmlns:xlink="http://www.w3.org/1999/xlink" version="1.1"><rect x="0" y="0" width="960" height="540" fill="#001220"></rect><defs><linearGradient id="grad1_0" x1="43.8%" y1="0%" x2="100%" y2="100%"><stop offset="14.444444444444446%" stop-color="#001220" stop-opacity="1"></stop><stop offset="85.55555555555554%" stop-color="#001220" stop-opacity="1"></stop></linearGradient></defs><defs><linearGradient id="grad2_0" x1="0%" y1="0%" x2="56.3%" y2="100%"><stop offset="14.444444444444446%" stop-color="#001220" stop-opacity="1"></stop><stop offset="85.55555555555554%" stop-color="#001220" stop-opacity="1"></stop></linearGradient></defs><g transform="translate(960, 0)"><path d="M0 297C-39 293.2 -78 289.4 -113.7 274.4C-149.3 259.3 -181.6 233 -202.2 202.2C-222.9 171.5 -231.9 136.2 -245.8 101.8C-259.6 67.3 -278.3 33.7 -297 0L0 0Z" fill="#FBAE3C"></path></g><g transform="translate(0, 540)"><path d="M0 -297C32.3 -279.9 64.6 -262.9 104.5 -252.2C144.4 -241.5 191.9 -237.3 210 -210C228.1 -182.8 216.8 -132.6 226.4 -93.8C235.9 -54.9 266.5 -27.5 297 0L0 0Z" fill="#FBAE3C"></path></g></svg>